# xmcd
#
# Track frame offsets: 
#        150
#        14955
#        16899
#        29264
#        29655
#        43800
#        59421
#        61162
#        77513
#        90955
#        91659
#        107089
#        108088
#        121629
#        123189
#        140226
#        142108
#        158405
#        169524
#        170198
#        184250
#        199455
#        205077
#        220642
#        221572
#        237424
#        238386
#        268424
#
# Disc length: 4776 seconds
#
# Revision: 1
# Processed by: cddbd v1.5.2PL0 Copyright (c) Steve Scherf et al.
# Submitted via: ExactAudioCopy v0.99pb4
#
DISCID=9512a61c
DTITLE=Потап - На Другой Волне Или Ано Канешно Потомушо Шож
DYEAR=2006
DGENRE=R&B
TTITLE0=Intro
TTITLE1=Скит 1
TTITLE2=Не Пара
TTITLE3=Скит 2
TTITLE4=Иее
TTITLE5=Микс
TTITLE6=Скит 3
TTITLE7=Мы Танцуем
TTITLE8=Шелковые Трусики
TTITLE9=Скит 4
TTITLE10=Петя
TTITLE11=Скит 5
TTITLE12=Мыльные Пузыри
TTITLE13=Скит 6
TTITLE14=НеПОТАПляемый
TTITLE15=Скит 7
TTITLE16=Шиворот На Выворот
TTITLE17=Грустная Песня Потапа
TTITLE18=Скит 8
TTITLE19=Пам-Пам-Пам
TTITLE20=Пес+Скит 9
TTITLE21=Я Еду Дальше
TTITLE22=8-Ка
TTITLE23=Скит 10
TTITLE24=На Своей Волне
TTITLE25=Скит 11
TTITLE26=До Свидания (+ Прощальная Речь В Исполнении Господина Потапа)
TTITLE27=Bonus
EXTD=
EXTT0=
EXTT1=
EXTT2=
EXTT3=
EXTT4=
EXTT5=
EXTT6=
EXTT7=
EXTT8=
EXTT9=
EXTT10=
EXTT11=
EXTT12=
EXTT13=
EXTT14=
EXTT15=
EXTT16=
EXTT17=
EXTT18=
EXTT19=
EXTT20=
EXTT21=
EXTT22=
EXTT23=
EXTT24=
EXTT25=
EXTT26=
EXTT27=
PLAYORDER=
